<svg width="30" height="30" viewBox="0 0 30 30" fill="none" xmlns="http://www.w3.org/2000/svg">
<path d="M14.5 23C14.5 23.5523 14.9477 24 15.5 24C16.0523 24 16.5 23.5523 16.5 23L14.5 23ZM16.2071 0.292893C15.8166 -0.0976311 15.1834 -0.0976311 14.7929 0.292893L8.42893 6.65685C8.03841 7.04738 8.03841 7.68054 8.42893 8.07107C8.81946 8.46159 9.45262 8.46159 9.84314 8.07107L15.5 2.41421L21.1569 8.07107C21.5474 8.46159 22.1805 8.46159 22.5711 8.07107C22.9616 7.68054 22.9616 7.04738 22.5711 6.65685L16.2071 0.292893ZM16.5 23L16.5 1L14.5 1L14.5 23L16.5 23Z" fill="white" fill-opacity="0.5"/>
<path d="M1.5 23L2.54254 25.867C3.11736 27.4477 4.61968 28.5 6.30171 28.5H23.6983C25.3803 28.5 26.8826 27.4477 27.4575 25.867L28.5 23" stroke="white" stroke-opacity="0.5" stroke-width="1.78" stroke-linecap="round"/>
</svg>
