<svg width="238" height="263" viewBox="0 0 238 263" fill="none" xmlns="http://www.w3.org/2000/svg">
<g filter="url(#filter0_d_2428_499)">
<path fill-rule="evenodd" clip-rule="evenodd" d="M87.6229 42.6226C91.2788 39.7061 92 37.038 92 35.5C92 33.962 91.2788 31.2939 87.6229 28.3774C83.9256 25.4278 77.9482 23 70.5 23C63.0518 23 57.0744 25.4278 53.3771 28.3774C49.7212 31.2939 49 33.962 49 35.5C49 37.038 49.7212 39.7061 53.3771 42.6226C57.0744 45.5722 63.0518 48 70.5 48C77.9482 48 83.9256 45.5722 87.6229 42.6226ZM114.861 38.322C114.953 37.391 115 36.4498 115 35.5C115 15.8939 95.0767 0 70.5 0C45.9233 0 26 15.8939 26 35.5C26 55.1061 45.9233 71 70.5 71C87.8233 71 102.835 63.1033 110.186 51.576L133.617 56.3157C129.402 62.2903 127 69.1734 127 76.5C127 86.4838 131.46 95.6442 138.891 102.804L115.585 121.671C103.956 112.594 88.0465 107 70.5 107C34.8776 107 6 130.057 6 158.5C6 186.943 34.8776 210 70.5 210C73.9101 210 77.2584 209.789 80.5255 209.382L80.6245 209.94C84.1245 219.94 83.1401 234.44 77.8822 245.94C87.6245 243.94 121.625 217.94 133.641 169.44V169.066C134.532 165.656 135 162.122 135 158.5C135 149.972 132.404 141.927 127.808 134.844L154.689 113.082C162.077 116.22 170.526 118 179.5 118C208.495 118 232 99.4198 232 76.5C232 53.5802 208.495 35 179.5 35C166.725 35 155.015 38.6071 145.912 44.6032L114.861 38.322ZM209 76.5C209 81.9705 201.127 95 179.5 95C157.873 95 150 81.9705 150 76.5C150 71.0295 157.873 58 179.5 58C201.127 58 209 71.0295 209 76.5ZM112 158.5C112 169.68 98.5197 187 70.5 187C42.4803 187 29 169.68 29 158.5C29 147.32 42.4803 130 70.5 130C98.5197 130 112 147.32 112 158.5Z" fill="black"/>
</g>
<defs>
<filter id="filter0_d_2428_499" x="0.3" y="0" width="237.4" height="262.64" filterUnits="userSpaceOnUse" color-interpolation-filters="sRGB">
<feFlood flood-opacity="0" result="BackgroundImageFix"/>
<feColorMatrix in="SourceAlpha" type="matrix" values="0 0 0 0 0 0 0 0 0 0 0 0 0 0 0 0 0 0 127 0" result="hardAlpha"/>
<feOffset dy="11"/>
<feGaussianBlur stdDeviation="2.85"/>
<feComposite in2="hardAlpha" operator="out"/>
<feColorMatrix type="matrix" values="0 0 0 0 0.161814 0 0 0 0 0.160694 0 0 0 0 0.216667 0 0 0 0.25 0"/>
<feBlend mode="normal" in2="BackgroundImageFix" result="effect1_dropShadow_2428_499"/>
<feBlend mode="normal" in="SourceGraphic" in2="effect1_dropShadow_2428_499" result="shape"/>
</filter>
</defs>
</svg>
