<svg width="35" height="32" viewBox="0 0 35 32" fill="none" xmlns="http://www.w3.org/2000/svg">
<path d="M17.071 31.6951L19.1924 29.5738L17.1007 27.4821L14.9798 29.5441L17.071 31.6951ZM17.071 31.6951L14.9497 33.8165L17.0413 35.9082L19.1622 33.8462L17.071 31.6951ZM2.92884 17.553L0.80014 15.4391L-1.30642 17.5604L0.807518 19.6744L2.92884 17.553ZM2.92884 17.553L5.05761 19.6669L7.16417 17.5456L5.05024 15.4317L2.92884 17.553ZM17.071 3.41084L14.9497 5.53217L17.071 7.65346L19.1923 5.53218L17.071 3.41084ZM31.2132 17.553L29.0918 15.4317L26.9706 17.553L29.0919 19.6743L31.2132 17.553ZM31.2132 17.553L33.3345 19.6743L35.4558 17.553L33.3345 15.4317L31.2132 17.553ZM17.071 31.6951L14.9497 33.8165L17.0711 35.9378L19.1924 33.8165L17.071 31.6951ZM19.1924 29.5738L5.05024 15.4317L0.807518 19.6744L14.9497 33.8165L19.1924 29.5738ZM5.05024 15.4317C2.31658 12.698 2.31659 8.26585 5.05025 5.53219L0.807609 1.28955C-4.26919 6.36635 -4.26926 14.5976 0.807518 19.6744L5.05024 15.4317ZM5.05025 5.53219C7.78392 2.79852 12.2161 2.79852 14.9497 5.53217L19.1924 1.28951C14.1155 -3.78727 5.88442 -3.78726 0.807609 1.28955L5.05025 5.53219ZM19.1923 5.53218C21.926 2.79856 26.3581 2.79858 29.0918 5.53223L33.3344 1.28959C28.2576 -3.7872 20.0266 -3.78723 14.9497 1.2895L19.1923 5.53218ZM29.0918 5.53223C31.8254 8.26588 31.8255 12.698 29.0918 15.4317L33.3345 19.6743C38.4112 14.5975 38.4112 6.36638 33.3344 1.28959L29.0918 5.53223ZM29.0918 15.4317L14.9497 29.5738L19.1924 33.8165L33.3345 19.6743L29.0918 15.4317Z" fill="white"/>
</svg>
